<svg version="1.2" baseProfile="tiny-ps" xmlns="http://www.w3.org/2000/svg" viewBox="0 0 80 40" width="80" height="40">
	<title>share-orange-svg</title>
	<style>
		tspan { white-space:pre }
		.shp0 { fill: #dd5900 } 
		.shp1 { fill: #ffffff } 
	</style>
	<path id="Layer" fill-rule="evenodd" class="shp0" d="M28 25.4C28 26.9 26.8 28.1 25.3 28.1C23.8 28.1 22.6 26.9 22.6 25.4C22.6 25.2 22.7 25 22.7 24.8L17.6 21.9C17.1 22.4 16.4 22.7 15.7 22.7C14.2 22.7 13 21.5 13 20C13 18.6 14.2 17.4 15.7 17.4C16.4 17.4 17.1 17.7 17.6 18.2L22.7 15.3C22.6 15.1 22.6 14.9 22.6 14.7C22.6 13.2 23.8 12 25.3 12C26.8 12 28 13.2 28 14.6C28 16.1 26.8 17.3 25.3 17.3C24.5 17.3 23.8 17 23.3 16.4L18.3 19.3C18.4 19.5 18.4 19.7 18.4 20C18.4 20.3 18.3 20.5 18.3 20.7L23.3 23.6C23.8 23 24.5 22.7 25.3 22.7C26.8 22.7 28 23.9 28 25.4ZM25.3 24C24.9 24 24.6 24.2 24.3 24.5C24.1 24.7 23.9 24.9 23.9 25.2C23.9 25.2 23.9 25.3 23.9 25.4C23.9 26.2 24.5 26.8 25.3 26.8C26.1 26.8 26.7 26.2 26.7 25.4C26.7 24.6 26.1 24 25.3 24ZM23.9 15C24 15.2 24.1 15.5 24.3 15.7C24.6 15.9 24.9 16.1 25.3 16.1C26.1 16.1 26.7 15.5 26.7 14.7C26.7 13.9 26.1 13.3 25.3 13.3C24.5 13.3 23.9 13.9 23.9 14.7C23.9 14.8 23.9 14.8 23.9 15ZM15.7 18.6C14.9 18.6 14.3 19.2 14.3 20C14.3 20.8 14.9 21.4 15.7 21.4C16.5 21.4 17.1 20.8 17.1 20C17.1 19.3 16.5 18.6 15.7 18.6Z" />
	<path id="Layer copy" fill-rule="evenodd" class="shp1" d="M68 25.4C68 26.9 66.8 28.1 65.3 28.1C63.8 28.1 62.6 26.9 62.6 25.4C62.6 25.2 62.7 25 62.7 24.8L57.6 21.9C57.1 22.4 56.4 22.7 55.7 22.7C54.2 22.7 53 21.5 53 20C53 18.6 54.2 17.4 55.7 17.4C56.4 17.4 57.1 17.7 57.6 18.2L62.7 15.3C62.6 15.1 62.6 14.9 62.6 14.7C62.6 13.2 63.8 12 65.3 12C66.8 12 68 13.2 68 14.6C68 16.1 66.8 17.3 65.3 17.3C64.5 17.3 63.8 17 63.3 16.4L58.3 19.3C58.4 19.5 58.4 19.7 58.4 20C58.4 20.3 58.3 20.5 58.3 20.7L63.3 23.6C63.8 23 64.5 22.7 65.3 22.7C66.8 22.7 68 23.9 68 25.4ZM65.3 24C64.9 24 64.6 24.2 64.3 24.5C64.1 24.7 63.9 24.9 63.9 25.2C63.9 25.2 63.9 25.3 63.9 25.4C63.9 26.2 64.5 26.8 65.3 26.8C66.1 26.8 66.7 26.2 66.7 25.4C66.7 24.6 66.1 24 65.3 24ZM63.9 15C64 15.2 64.1 15.5 64.3 15.7C64.6 15.9 64.9 16.1 65.3 16.1C66.1 16.1 66.7 15.5 66.7 14.7C66.7 13.9 66.1 13.3 65.3 13.3C64.5 13.3 63.9 13.9 63.9 14.7C63.9 14.8 63.9 14.8 63.9 15ZM55.7 18.6C54.9 18.6 54.3 19.2 54.3 20C54.3 20.8 54.9 21.4 55.7 21.4C56.5 21.4 57.1 20.8 57.1 20C57.1 19.3 56.5 18.6 55.7 18.6Z" />
</svg>