<svg width="36" height="27" viewBox="0 0 36 27" fill="none" xmlns="http://www.w3.org/2000/svg">
<path fill-rule="evenodd" clip-rule="evenodd" d="M29.0482 4.55889L29.0617 4.56001L29.0751 4.56105C30.1726 4.64547 30.6025 4.84455 30.7311 4.92112L30.7387 4.92554C30.782 4.95017 30.8743 5.00269 31.0185 5.32944C31.2165 5.77797 31.4333 6.58661 31.5759 8.03097C31.7162 9.45257 31.764 11.2403 31.764 13.5375C31.764 15.8341 31.7162 17.6328 31.5756 19.0681C31.4325 20.5275 31.2146 21.3537 31.0129 21.8146C30.8646 22.1536 30.7742 22.1946 30.7552 22.2032L30.7523 22.2046C30.6557 22.2614 30.2574 22.4519 29.1831 22.507L29.174 22.5075L29.165 22.508C23.9375 22.7984 12.1504 22.7993 6.88295 22.5106C5.8164 22.4244 5.39581 22.2295 5.26895 22.1539L5.26129 22.1495C5.21802 22.1248 5.12573 22.0723 4.98149 21.7456C4.78349 21.297 4.56671 20.4884 4.42413 19.044C4.2838 17.6224 4.23602 15.8347 4.23602 13.5375C4.23602 11.2403 4.2838 9.45257 4.42413 8.03097C4.56671 6.58661 4.78349 5.77797 4.98149 5.32944C5.12573 5.00269 5.21802 4.95017 5.26129 4.92554L5.26895 4.92112C5.39746 4.84455 5.82739 4.64547 6.92489 4.56105L6.93834 4.56001L6.95178 4.55889C12.1177 4.1284 23.8823 4.1284 29.0482 4.55889ZM0 13.5375C0 22.8375 0.75 26.2875 6.6 26.7375C12 27.0375 24 27.0375 29.4 26.7375C35.25 26.4375 36 22.8375 36 13.5375C36 4.2375 35.25 0.7875 29.4 0.3375C24 -0.1125 12 -0.1125 6.6 0.3375C0.75 0.7875 0 4.2375 0 13.5375ZM16.5648 18.0049C15.1565 18.709 13.4996 17.685 13.4996 16.1105V10.9645C13.4996 9.39002 15.1565 8.36597 16.5648 9.07011L21.7107 11.6431C23.2718 12.4236 23.2718 14.6514 21.7107 15.4319L16.5648 18.0049Z" fill="#343A40"/>
</svg>
