<svg width="63" height="24" viewBox="0 0 63 24" fill="none" xmlns="http://www.w3.org/2000/svg">
<path d="M63 7.57879C63 11.7646 59.601 15.1578 55.4079 15.1578H50.2692V24H44.3643V0H55.4079C59.6013 0 63 3.39323 63 7.57879ZM54.4507 4.94732H50.2694V9.89464H54.4507C55.7608 9.89464 56.823 8.72907 56.823 7.42098C56.823 6.11289 55.7608 4.94732 54.4507 4.94732ZM34.8753 0V9.68415H26.6509V0H20.7463V23.9998H26.6509V15.1578H34.8753V24H40.7797V0H34.8753ZM18.4201 17.4737C18.4201 21.436 14.8826 24 11.0391 24H0V0H10.6754C14.5929 0 17.8456 2.87465 17.8456 6.42098C17.8456 9.22766 16.5294 10.7347 14.7109 11.8692C16.8128 12.7742 18.4201 14.1256 18.4201 17.4737ZM9.85863 14.3156H5.90462V18.9473H9.85863C11.3876 18.9473 12.2312 17.9104 12.2312 16.6315C12.2312 15.3525 11.1689 14.3156 9.85863 14.3156ZM9.28404 4.94732H5.90462V9.89464H9.28404C10.8502 9.89464 11.6566 8.72907 11.6566 7.42098C11.6566 6.11289 10.8502 4.94732 9.28404 4.94732Z" fill="white"/>
</svg>
