<?xml version="1.0" encoding="utf-8"?>
<!-- Generator: Adobe Illustrator 24.3.0, SVG Export Plug-In . SVG Version: 6.00 Build 0)  -->
<svg version="1.1" id="Layer_1" xmlns="http://www.w3.org/2000/svg" xmlns:xlink="http://www.w3.org/1999/xlink" x="0px" y="0px"
	 viewBox="0 0 32 26" style="enable-background:new 0 0 32 26;" xml:space="preserve">
<style type="text/css">
	.st0{fill:#DD5900;}
</style>
<path class="st0" d="M32,3.1c-1.2,0.5-2.4,0.9-3.8,1c1.4-0.8,2.4-2.1,2.9-3.6c-1.3,0.8-2.7,1.3-4.2,1.6C25.8,0.8,24,0,22.2,0
	c-4.2,0-7.4,4-6.4,8.1C10.3,7.8,5.5,5.2,2.2,1.2c-1.7,3-0.9,6.8,2,8.8c-1.1,0-2.1-0.3-3-0.8c-0.1,3,2.1,5.9,5.3,6.5
	c-0.9,0.3-1.9,0.3-3,0.1c0.8,2.6,3.3,4.5,6.1,4.6C7,22.5,3.5,23.5,0,23.1C2.9,24.9,6.4,26,10.1,26c12.2,0,19.1-10.3,18.7-19.5
	C30,5.6,31.1,4.4,32,3.1z"/>
</svg>
