<?xml version="1.0" encoding="utf-8"?>
<!-- Generator: Adobe Illustrator 24.3.0, SVG Export Plug-In . SVG Version: 6.00 Build 0)  -->
<svg version="1.1" id="Layer_1" xmlns="http://www.w3.org/2000/svg" xmlns:xlink="http://www.w3.org/1999/xlink" x="0px" y="0px"
	 viewBox="0 0 36 27" style="enable-background:new 0 0 36 27;" xml:space="preserve">
<style type="text/css">
	.st0{fill:#DD5900;}
</style>
<g>
	<g>
		<path class="st0" d="M18,27c-3.9,0-7.8-0.1-10.3-0.2C0.1,26.2,0,20,0,13.5C0,6.9,0.1,0.7,7.7,0.2c5-0.3,15.7-0.3,20.6,0
			C35.9,0.7,36,6.9,36,13.5l0,0c0,6.5-0.1,12.7-7.7,13.2C25.9,26.9,21.9,27,18,27z M18,3.8c-3.8,0-7.7,0.1-10,0.2
			c-3.2,0.2-4,1.1-4,9.5c0,8.3,0.8,9.2,4,9.4c4.7,0.3,15.4,0.3,20.1,0c3.2-0.2,4-1.1,4-9.4s-0.8-9.2-4-9.4C25.7,3.9,21.9,3.8,18,3.8
			z"/>
	</g>
	<path class="st0" d="M16.3,17.9c-1.2,0.7-2.8-0.2-2.8-1.6v-5.9c0-1.4,1.5-2.3,2.8-1.6l5.5,3.2c1.1,0.6,1.1,2.1,0,2.7L16.3,17.9z"/>
</g>
</svg>
